<mxfile>
    <diagram id="Gv-LFwFbANpFk3CrltmL" name="Page-1">
        <mxGraphModel dx="3706" dy="1040" grid="0" gridSize="10" guides="1" tooltips="1" connect="1" arrows="1" fold="1" page="1" pageScale="1" pageWidth="850" pageHeight="1100" math="0" shadow="0">
            <root>
                <mxCell id="0"/>
                <mxCell id="1" parent="0"/>
                <mxCell id="34" value="" style="group" parent="1" vertex="1" connectable="0">
                    <mxGeometry x="-838" y="132" width="820" height="866" as="geometry"/>
                </mxCell>
                <mxCell id="3" value="" style="whiteSpace=wrap;html=1;labelBackgroundColor=none;fontSize=22;fontColor=#FFFFFF;" parent="34" vertex="1">
                    <mxGeometry width="819" height="866" as="geometry"/>
                </mxCell>
                <mxCell id="4" value="&lt;br&gt;&lt;br&gt;&lt;span style=&quot;color: rgb(255, 255, 255); font-family: helvetica; font-size: 22px; font-style: normal; font-weight: 400; letter-spacing: normal; text-align: center; text-indent: 0px; text-transform: none; word-spacing: 0px; display: inline; float: none;&quot;&gt;Container 1&lt;/span&gt;&lt;br&gt;&lt;font style=&quot;font-size: 14px&quot;&gt;Partition by user account ID&lt;/font&gt;" style="whiteSpace=wrap;html=1;labelBackgroundColor=none;fontSize=22;fontColor=#ffffff;verticalAlign=middle;labelPosition=center;verticalLabelPosition=middle;align=center;spacingBottom=40;strokeColor=#314354;fillColor=#647687;" parent="34" vertex="1">
                    <mxGeometry width="820" height="117" as="geometry"/>
                </mxCell>
                <mxCell id="35" value="&lt;b&gt;VisualData-topology&lt;/b&gt;&lt;br&gt;{&lt;br&gt;id:...&lt;blockquote style=&quot;margin: 0 0 0 40px ; border: none ; padding: 0px&quot;&gt;&lt;/blockquote&gt;,type:&quot;Topology&quot;&lt;br&gt;&lt;blockquote style=&quot;margin: 0 0 0 40px ; border: none ; padding: 0px&quot;&gt;&lt;/blockquote&gt;,accountID:&lt;br&gt;&lt;blockquote style=&quot;margin: 0 0 0 40px ; border: none ; padding: 0px&quot;&gt;&lt;/blockquote&gt;,name:...&lt;br&gt;,&lt;font color=&quot;#b266ff&quot;&gt;snapShot:...&lt;/font&gt;&lt;br&gt;}" style="whiteSpace=wrap;html=1;labelBackgroundColor=none;fontSize=16;verticalAlign=top;labelPosition=center;verticalLabelPosition=middle;align=left;spacingBottom=40;strokeColor=#d79b00;fillColor=#ffe6cc;fontColor=#333333;spacingLeft=4;" parent="34" vertex="1">
                    <mxGeometry x="15" y="634" width="196" height="182" as="geometry"/>
                </mxCell>
                <mxCell id="38" value="&lt;b&gt;VisualData-GIS&lt;/b&gt;&lt;br&gt;{&lt;br&gt;id:...&lt;blockquote style=&quot;margin: 0 0 0 40px ; border: none ; padding: 0px&quot;&gt;&lt;/blockquote&gt;,type:&quot;GIS&quot;&lt;br&gt;&lt;blockquote style=&quot;margin: 0 0 0 40px ; border: none ; padding: 0px&quot;&gt;&lt;/blockquote&gt;,accountID:&lt;br&gt;&lt;blockquote style=&quot;margin: 0 0 0 40px ; border: none ; padding: 0px&quot;&gt;&lt;/blockquote&gt;,name:...&lt;br&gt;,&lt;font color=&quot;#b266ff&quot;&gt;snapShot:...&lt;/font&gt;&lt;br&gt;}" style="whiteSpace=wrap;html=1;labelBackgroundColor=none;fontSize=16;verticalAlign=top;labelPosition=center;verticalLabelPosition=middle;align=left;spacingBottom=40;strokeColor=#d79b00;fillColor=#ffe6cc;fontColor=#333333;spacingLeft=4;" parent="34" vertex="1">
                    <mxGeometry x="226" y="634" width="196" height="182" as="geometry"/>
                </mxCell>
                <mxCell id="39" value="&lt;b&gt;VisualData-schema&lt;/b&gt;&lt;br&gt;&lt;font style=&quot;font-size: 12px&quot;&gt;(color legend and avarta)&lt;/font&gt;&lt;br&gt;{&lt;br&gt;id:...&lt;blockquote style=&quot;margin: 0 0 0 40px ; border: none ; padding: 0px&quot;&gt;&lt;/blockquote&gt;,type:&quot;schema&quot;&lt;br&gt;&lt;blockquote style=&quot;margin: 0 0 0 40px ; border: none ; padding: 0px&quot;&gt;&lt;/blockquote&gt;,accountID:&lt;br&gt;&lt;blockquote style=&quot;margin: 0 0 0 40px ; border: none ; padding: 0px&quot;&gt;&lt;/blockquote&gt;,name:...&lt;br&gt;,detail:{...}&lt;br&gt;}" style="whiteSpace=wrap;html=1;labelBackgroundColor=none;fontSize=16;verticalAlign=top;labelPosition=center;verticalLabelPosition=middle;align=left;spacingBottom=40;strokeColor=#d79b00;fillColor=#ffe6cc;fontColor=#333333;spacingLeft=4;" parent="34" vertex="1">
                    <mxGeometry x="437" y="634" width="196" height="182" as="geometry"/>
                </mxCell>
                <mxCell id="2" value="Cosmos DB Schema Design" style="text;html=1;resizable=0;autosize=1;align=center;verticalAlign=middle;points=[];fillColor=none;strokeColor=none;rounded=0;fontSize=22;labelBackgroundColor=none;fontStyle=5;fontColor=#FFFFFF;" parent="1" vertex="1">
                    <mxGeometry x="-729" y="34.5" width="304" height="30" as="geometry"/>
                </mxCell>
                <mxCell id="5" value="&lt;b&gt;User&lt;/b&gt;&lt;br&gt;{&lt;br&gt;&lt;blockquote style=&quot;margin: 0 0 0 40px ; border: none ; padding: 0px&quot;&gt;&lt;/blockquote&gt;&lt;blockquote style=&quot;margin: 0 0 0 40px ; border: none ; padding: 0px&quot;&gt;&lt;/blockquote&gt;id:...&lt;br&gt;,type:&quot;user&quot;&lt;blockquote style=&quot;margin: 0 0 0 40px ; border: none ; padding: 0px&quot;&gt;&lt;/blockquote&gt;,accountID:&lt;br&gt;&lt;blockquote style=&quot;margin: 0 0 0 40px ; border: none ; padding: 0px&quot;&gt;&lt;/blockquote&gt;,profile:{country:.., displayname:..}&lt;br&gt;,creationTS:...&lt;blockquote style=&quot;margin: 0 0 0 40px ; border: none ; padding: 0px&quot;&gt;&lt;/blockquote&gt;&lt;blockquote style=&quot;margin: 0 0 0 40px ; border: none ; padding: 0px&quot;&gt;&lt;/blockquote&gt;}" style="whiteSpace=wrap;html=1;labelBackgroundColor=none;fontSize=16;verticalAlign=top;labelPosition=center;verticalLabelPosition=middle;align=left;spacingBottom=40;strokeColor=#d79b00;fillColor=#ffe6cc;fontColor=#333333;spacingLeft=4;" parent="1" vertex="1">
                    <mxGeometry x="-827" y="266" width="159" height="205" as="geometry"/>
                </mxCell>
                <mxCell id="6" value="&lt;b&gt;DTModels&lt;/b&gt;&lt;br&gt;{&lt;br&gt;&lt;blockquote style=&quot;margin: 0 0 0 40px ; border: none ; padding: 0px&quot;&gt;&lt;/blockquote&gt;id:...&lt;br&gt;,type:&quot;DTModel&quot;&lt;br&gt;&lt;blockquote style=&quot;margin: 0 0 0 40px ; border: none ; padding: 0px&quot;&gt;&lt;/blockquote&gt;,accountID:&lt;br&gt;&lt;blockquote style=&quot;margin: 0 0 0 40px ; border: none ; padding: 0px&quot;&gt;&lt;/blockquote&gt;,displayName:&lt;br&gt;&lt;blockquote style=&quot;margin: 0 0 0 40px ; border: none ; padding: 0px&quot;&gt;&lt;/blockquote&gt;,creationTS:...&lt;br&gt;&lt;blockquote style=&quot;margin: 0 0 0 40px ; border: none ; padding: 0px&quot;&gt;&lt;/blockquote&gt;,updateTS:...&lt;br&gt;}" style="whiteSpace=wrap;html=1;labelBackgroundColor=none;fontSize=16;verticalAlign=top;labelPosition=center;verticalLabelPosition=middle;align=left;spacingBottom=40;strokeColor=#d79b00;fillColor=#ffe6cc;fontColor=#333333;spacingLeft=4;" parent="1" vertex="1">
                    <mxGeometry x="-648" y="266" width="159" height="203" as="geometry"/>
                </mxCell>
                <mxCell id="7" value="&lt;b&gt;DTTwins&lt;/b&gt;&lt;br&gt;{&lt;br&gt;id:...&lt;blockquote style=&quot;margin: 0 0 0 40px ; border: none ; padding: 0px&quot;&gt;&lt;/blockquote&gt;,type:&quot;DTTwin&quot;&lt;br&gt;&lt;blockquote style=&quot;margin: 0 0 0 40px ; border: none ; padding: 0px&quot;&gt;&lt;/blockquote&gt;,accountID:&lt;br&gt;&lt;blockquote style=&quot;margin: 0 0 0 40px ; border: none ; padding: 0px&quot;&gt;&lt;/blockquote&gt;,creationTS:...&lt;br&gt;,IoTDeviceID:..&lt;br&gt;&lt;font color=&quot;#9933ff&quot;&gt;,propertyValue:?&lt;br&gt;&lt;/font&gt;}" style="whiteSpace=wrap;html=1;labelBackgroundColor=none;fontSize=16;verticalAlign=top;labelPosition=center;verticalLabelPosition=middle;align=left;spacingBottom=40;strokeColor=#d79b00;fillColor=#ffe6cc;fontColor=#333333;spacingLeft=4;" parent="1" vertex="1">
                    <mxGeometry x="-457" y="266" width="169" height="204" as="geometry"/>
                </mxCell>
                <mxCell id="8" value="&lt;b&gt;IoTDevices&lt;/b&gt;&lt;br&gt;{&lt;br&gt;id:...&lt;blockquote style=&quot;margin: 0 0 0 40px ; border: none ; padding: 0px&quot;&gt;&lt;/blockquote&gt;,type:&quot;IoTDevice&quot;&lt;br&gt;&lt;blockquote style=&quot;margin: 0 0 0 40px ; border: none ; padding: 0px&quot;&gt;&lt;/blockquote&gt;,accountID:&lt;br&gt;,creationTS:...&lt;blockquote style=&quot;margin: 0 0 0 40px ; border: none ; padding: 0px&quot;&gt;&lt;/blockquote&gt;,provisionTS:...&lt;br&gt;,retiredTS:...&lt;br&gt;&lt;font color=&quot;#9933ff&quot;&gt;,reportProperties:?&lt;br&gt;&lt;/font&gt;&lt;font color=&quot;#9933ff&quot;&gt;,desiredProperties:?&lt;br&gt;&lt;/font&gt;,lastOneMinuteTelemetry:[{},{},...]&lt;br&gt;,exposedDirectMethods:[{},{}...]&lt;br&gt;}" style="whiteSpace=wrap;html=1;labelBackgroundColor=none;fontSize=16;verticalAlign=top;labelPosition=center;verticalLabelPosition=middle;align=left;spacingBottom=40;strokeColor=#d79b00;fillColor=#ffe6cc;fontColor=#333333;spacingLeft=4;" parent="1" vertex="1">
                    <mxGeometry x="-267" y="266" width="234" height="302" as="geometry"/>
                </mxCell>
                <mxCell id="9" value="&lt;b&gt;LatestTwinEvents (latest 100)&lt;/b&gt;&lt;br&gt;{&lt;br&gt;id:...&lt;blockquote style=&quot;margin: 0 0 0 40px ; border: none ; padding: 0px&quot;&gt;&lt;/blockquote&gt;,type:&quot;twinevent&quot;&lt;br&gt;&lt;blockquote style=&quot;margin: 0 0 0 40px ; border: none ; padding: 0px&quot;&gt;&lt;/blockquote&gt;,accountID:&lt;br&gt;&lt;blockquote style=&quot;margin: 0 0 0 40px ; border: none ; padding: 0px&quot;&gt;&lt;/blockquote&gt;,eventTS:...&lt;br&gt;,detail:{...}&lt;br&gt;,eventType:...&lt;br&gt;}" style="whiteSpace=wrap;html=1;labelBackgroundColor=none;fontSize=16;verticalAlign=top;labelPosition=center;verticalLabelPosition=middle;align=left;spacingBottom=40;strokeColor=#d79b00;fillColor=#ffe6cc;fontColor=#333333;spacingLeft=4;" parent="1" vertex="1">
                    <mxGeometry x="-824" y="522" width="196" height="216" as="geometry"/>
                </mxCell>
                <mxCell id="11" value="" style="group" parent="1" vertex="1" connectable="0">
                    <mxGeometry x="3" y="133" width="396" height="575" as="geometry"/>
                </mxCell>
                <mxCell id="12" value="" style="whiteSpace=wrap;html=1;labelBackgroundColor=none;fontSize=22;fontColor=#FFFFFF;" parent="11" vertex="1">
                    <mxGeometry width="395.5170731707317" height="575" as="geometry"/>
                </mxCell>
                <mxCell id="13" value="&lt;br&gt;&lt;br&gt;&lt;span style=&quot;color: rgb(255 , 255 , 255) ; font-family: &amp;#34;helvetica&amp;#34; ; font-size: 22px ; font-style: normal ; font-weight: 400 ; letter-spacing: normal ; text-align: center ; text-indent: 0px ; text-transform: none ; word-spacing: 0px ; display: inline ; float: none&quot;&gt;Container 2&lt;/span&gt;&lt;br&gt;&lt;font style=&quot;font-size: 14px&quot;&gt;Partition by TwinID&lt;/font&gt;" style="whiteSpace=wrap;html=1;labelBackgroundColor=none;fontSize=22;fontColor=#ffffff;verticalAlign=middle;labelPosition=center;verticalLabelPosition=middle;align=center;spacingBottom=40;strokeColor=#314354;fillColor=#647687;" parent="11" vertex="1">
                    <mxGeometry width="396" height="116" as="geometry"/>
                </mxCell>
                <mxCell id="31" value="&lt;b&gt;TwinEvent&lt;/b&gt;&lt;br&gt;{&lt;br&gt;id:...&lt;blockquote style=&quot;margin: 0 0 0 40px ; border: none ; padding: 0px&quot;&gt;&lt;/blockquote&gt;,type:&quot;event&quot;&lt;br&gt;&lt;blockquote style=&quot;margin: 0 0 0 40px ; border: none ; padding: 0px&quot;&gt;&lt;/blockquote&gt;,TwinID:&lt;br&gt;&lt;blockquote style=&quot;margin: 0 0 0 40px ; border: none ; padding: 0px&quot;&gt;&lt;/blockquote&gt;,TS:...&lt;br&gt;,eventType:&quot;&quot;&lt;br&gt;,eventContent:{...}&lt;blockquote style=&quot;margin: 0 0 0 40px ; border: none ; padding: 0px&quot;&gt;&lt;blockquote style=&quot;margin: 0 0 0 40px ; border: none ; padding: 0px&quot;&gt;&lt;/blockquote&gt;&lt;/blockquote&gt;&lt;blockquote style=&quot;margin: 0 0 0 40px ; border: none ; padding: 0px&quot;&gt;&lt;blockquote style=&quot;margin: 0 0 0 40px ; border: none ; padding: 0px&quot;&gt;&lt;/blockquote&gt;&lt;/blockquote&gt;}" style="whiteSpace=wrap;html=1;labelBackgroundColor=none;fontSize=16;verticalAlign=top;labelPosition=center;verticalLabelPosition=middle;align=left;spacingBottom=40;strokeColor=#d79b00;fillColor=#ffe6cc;fontColor=#333333;spacingLeft=4;" parent="11" vertex="1">
                    <mxGeometry x="16" y="355" width="170" height="203" as="geometry"/>
                </mxCell>
                <mxCell id="14" value="" style="shape=image;verticalLabelPosition=bottom;verticalAlign=top;imageAspect=0;aspect=fixed;image=data:image/svg+xml,PHN2ZyB4bWxucz0iaHR0cDovL3d3dy53My5vcmcvMjAwMC9zdmciIGlkPSJhYzM3ZmJjNC1lNzcxLTQ2MGUtYWYxNS1iNWY5NmJjZmVkMzMiIHdpZHRoPSIxOCIgaGVpZ2h0PSIxOCIgdmlld0JveD0iMCAwIDE4IDE4Ij4mI3hhOyAgPGRlZnM+JiN4YTsgICAgPHJhZGlhbEdyYWRpZW50IGlkPSJiN2Y2ZGQxOS0yY2U2LTQ3ZmEtYWQ1Mi1hODUyYmQwMDYyNzkiIGN4PSItODAuMDgiIGN5PSItMzQuMTIxIiByPSI1Ljk1NCIgZ3JhZGllbnRUcmFuc2Zvcm09InRyYW5zbGF0ZSg5MS45MjggNDMuNDMxKSBzY2FsZSgxLjAzNiAxLjAyNykiIGdyYWRpZW50VW5pdHM9InVzZXJTcGFjZU9uVXNlIj4mI3hhOyAgICAgIDxzdG9wIG9mZnNldD0iMC4xODMiIHN0b3AtY29sb3I9IiM1ZWEwZWYiLz4mI3hhOyAgICAgIDxzdG9wIG9mZnNldD0iMSIgc3RvcC1jb2xvcj0iIzAwNzhkNCIvPiYjeGE7ICAgIDwvcmFkaWFsR3JhZGllbnQ+JiN4YTsgICAgPGNsaXBQYXRoIGlkPSJiNWVjNmY4Zi02NTc1LTQ0YzYtYmY1Yy1lZTZiN2ZmN2MxNzgiPiYjeGE7ICAgICAgPHBhdGggZD0iTTE0Ljk2OSw2Ljk3MUE2LjEzNyw2LjEzNywwLDEsMSw3LjU3NCwyLjQyNyw2LjEzNiw2LjEzNiwwLDAsMSwxNC45NjksNi45NzFaIiBmaWxsPSJub25lIi8+JiN4YTsgICAgPC9jbGlwUGF0aD4mI3hhOyAgPC9kZWZzPiYjeGE7ICA8dGl0bGU+SWNvbi1pb3QtMTkxPC90aXRsZT4mI3hhOyAgPHBhdGggZD0iTTIuOTU0LDQuNzA3YS4xNzYuMTc2LDAsMCwxLS4xNzYtLjE3NmgwQTIuMDExLDIuMDExLDAsMCwwLC43NjksMi41MjJhLjE3Ny4xNzcsMCwwLDEtLjE3Ni0uMTc2aDBhLjE3OC4xNzgsMCwwLDEsLjE3Ni0uMTc3QTIuMDExLDIuMDExLDAsMCwwLDIuNzc4LjE2MWEuMTc2LjE3NiwwLDAsMSwuMTc2LS4xNzdoMEEuMTc2LjE3NiwwLDAsMSwzLjEzLjE2MWgwQTIuMDExLDIuMDExLDAsMCwwLDUuMTM5LDIuMTY5YS4xNzYuMTc2LDAsMCwxLC4xNzYuMTc3aDBhLjE3Ni4xNzYsMCwwLDEtLjE3Ni4xNzZoMEEyLjAxMSwyLjAxMSwwLDAsMCwzLjEzLDQuNTMxLjE3OC4xNzgsMCwwLDEsMi45NTQsNC43MDdaIiBmaWxsPSIjNTBlNmZmIi8+JiN4YTsgIDxwYXRoIGQ9Ik0xNS42MTEsMTYuOWEuMTQxLjE0MSwwLDAsMS0uMTQxLS4xNDFoMGExLjYwOSwxLjYwOSwwLDAsMC0xLjYwNy0xLjYwNy4xNDEuMTQxLDAsMCwxLS4xNDEtLjE0aDBhLjE0MS4xNDEsMCwwLDEsLjE0MS0uMTQxaDBBMS42MDksMS42MDksMCwwLDAsMTUuNDcsMTMuMjZhLjE0MS4xNDEsMCwwLDEsLjE0MS0uMTQxaDBhLjE0MS4xNDEsMCwwLDEsLjE0MS4xNDFoMGExLjYwOSwxLjYwOSwwLDAsMCwxLjYwNywxLjYwNy4xNDEuMTQxLDAsMCwxLDAsLjI4MmgwYTEuNjA5LDEuNjA5LDAsMCwwLTEuNjA3LDEuNjA3QS4xNDEuMTQxLDAsMCwxLDE1LjYxMSwxNi45WiIgZmlsbD0iIzUwZTZmZiIvPiYjeGE7ICA8Zz4mI3hhOyAgICA8cGF0aCBkPSJNMTQuOTY5LDYuOTcxQTYuMTM3LDYuMTM3LDAsMSwxLDcuNTc0LDIuNDI3LDYuMTM2LDYuMTM2LDAsMCwxLDE0Ljk2OSw2Ljk3MVoiIGZpbGw9InVybCgjYjdmNmRkMTktMmNlNi00N2ZhLWFkNTItYTg1MmJkMDA2Mjc5KSIvPiYjeGE7ICAgIDxnIGNsaXAtcGF0aD0idXJsKCNiNWVjNmY4Zi02NTc1LTQ0YzYtYmY1Yy1lZTZiN2ZmN2MxNzgpIj4mI3hhOyAgICAgIDxwYXRoIGQ9Ik01LjcwOSwxMi41NTZhMS42MzgsMS42MzgsMCwxLDAsLjAwNS0zLjI3NSwxLjMwNywxLjMwNywwLDAsMCwuMDA3LS4xMzlBMS42NTIsMS42NTIsMCwwLDAsNC4wNiw3LjVIMi44MzJhNi4yNTQsNi4yNTQsMCwwLDAsMS41OTUsNS4wNTJaIiBmaWxsPSIjZjJmMmYyIi8+JiN4YTsgICAgICA8cGF0aCBkPSJNMTUuMDQ1LDcuMjU1YzAtLjAxNCwwLS4wMjktLjAwNy0uMDQ0YTUuOTg3LDUuOTg3LDAsMCwwLTEuNDA2LTIuODgsMS43MjQsMS43MjQsMCwwLDAtLjI4OS0uMDg5LDEuODA2LDEuODA2LDAsMCwwLTIuMywxLjY2MywxLjczNiwxLjczNiwwLDAsMC0uNzg1LDMuMzYsMS40NTIsMS40NTIsMCwwLDAsLjU0MS4xaDIuMDNBMTMuNDI1LDEzLjQyNSwwLDAsMCwxNS4wNDUsNy4yNTVaIiBmaWxsPSIjZjJmMmYyIi8+JiN4YTsgICAgPC9nPiYjeGE7ICA8L2c+JiN4YTsgIDxwYXRoIGQ9Ik0xNy4xOTEsMy4yNzNjLS42MjktMS4wNDgtMi4xLTEuNDU2LTQuMTU1LTEuMTQ5YTE0LjczNywxNC43MzcsMCwwLDAtMi4wODIuNDUxLDYuNDk0LDYuNDk0LDAsMCwxLDEuNTI4Ljc2N2MuMjQxLS4wNTMuNDgzLS4xMTYuNzE1LS4xNUE3LjUsNy41LDAsMCwxLDE0LjMsMy4xYTIuMTg4LDIuMTg4LDAsMCwxLDEuOTU5LjcyNWgwYy4zODMuNjM4LjA2LDEuNzMtLjg4NiwzYTE2LjcwNywxNi43MDcsMCwwLDEtNC43NDksNC4wNTFBMTYuNzU4LDE2Ljc1OCwwLDAsMSw0LjgsMTMuMTM1Yy0xLjU2NC4yMzQtMi42ODIsMC0zLjA2NS0uNjM1cy0uMDYtMS43My44ODYtMi45OTVjLjExNy0uMTU4LjE0Ni0uMjM1LjI3OS0uMzkyYTYuMjUxLDYuMjUxLDAsMCwxLC4wMjYtMS42M0ExMS41NDUsMTEuNTQ1LDAsMCwwLDEuNzU2LDguODU5Qy41MTcsMTAuNTE3LjE4MSwxMi4wMDcuODA5LDEzLjA1NGEzLjE2NywzLjE2NywwLDAsMCwyLjksMS4yNDgsOC41NjMsOC41NjMsMCwwLDAsMS4yNTEtLjEsMTcuODM5LDE3LjgzOSwwLDAsMCw2LjIxOS0yLjQsMTcuNzkzLDE3Ljc5MywwLDAsMCw1LjA2MS00LjMzMkMxNy40ODMsNS44MSwxNy44MTksNC4zMiwxNy4xOTEsMy4yNzNaIiBmaWxsPSIjNTBlNmZmIi8+JiN4YTs8L3N2Zz4=" parent="1" vertex="1">
                    <mxGeometry x="-825" y="12" width="75" height="75" as="geometry"/>
                </mxCell>
                <mxCell id="26" value="&lt;b&gt;TwinTelemetry&lt;/b&gt;&lt;br&gt;{&lt;br&gt;id:...&lt;blockquote style=&quot;margin: 0 0 0 40px ; border: none ; padding: 0px&quot;&gt;&lt;/blockquote&gt;,type:&quot;telemetry&quot;&lt;br&gt;&lt;blockquote style=&quot;margin: 0 0 0 40px ; border: none ; padding: 0px&quot;&gt;&lt;/blockquote&gt;,TwinID:&lt;br&gt;&lt;blockquote style=&quot;margin: 0 0 0 40px ; border: none ; padding: 0px&quot;&gt;&lt;/blockquote&gt;,TS:...&lt;br&gt;, kv:{&lt;blockquote style=&quot;margin: 0 0 0 40px ; border: none ; padding: 0px&quot;&gt;&lt;/blockquote&gt;&amp;nbsp; &amp;nbsp;parameter1: ...&lt;br&gt;}&lt;blockquote style=&quot;margin: 0 0 0 40px ; border: none ; padding: 0px&quot;&gt;&lt;blockquote style=&quot;margin: 0 0 0 40px ; border: none ; padding: 0px&quot;&gt;&lt;/blockquote&gt;&lt;/blockquote&gt;&lt;blockquote style=&quot;margin: 0 0 0 40px ; border: none ; padding: 0px&quot;&gt;&lt;blockquote style=&quot;margin: 0 0 0 40px ; border: none ; padding: 0px&quot;&gt;&lt;/blockquote&gt;&lt;/blockquote&gt;}" style="whiteSpace=wrap;html=1;labelBackgroundColor=none;fontSize=16;verticalAlign=top;labelPosition=center;verticalLabelPosition=middle;align=left;spacingBottom=40;strokeColor=#d79b00;fillColor=#ffe6cc;fontColor=#333333;spacingLeft=4;" parent="1" vertex="1">
                    <mxGeometry x="19" y="267" width="170" height="203" as="geometry"/>
                </mxCell>
                <mxCell id="27" value="&lt;b&gt;TwinProperty&lt;/b&gt;&lt;br&gt;{&lt;br&gt;id:...&lt;blockquote style=&quot;margin: 0 0 0 40px ; border: none ; padding: 0px&quot;&gt;&lt;/blockquote&gt;,type:&quot;property&quot;&lt;br&gt;&lt;blockquote style=&quot;margin: 0 0 0 40px ; border: none ; padding: 0px&quot;&gt;&lt;/blockquote&gt;,TwinID:&lt;br&gt;&lt;blockquote style=&quot;margin: 0 0 0 40px ; border: none ; padding: 0px&quot;&gt;&lt;/blockquote&gt;,TS:...&lt;br&gt;, propertyName:...&lt;br&gt;, propertyValue:...&lt;blockquote style=&quot;margin: 0 0 0 40px ; border: none ; padding: 0px&quot;&gt;&lt;blockquote style=&quot;margin: 0 0 0 40px ; border: none ; padding: 0px&quot;&gt;&lt;/blockquote&gt;&lt;/blockquote&gt;&lt;blockquote style=&quot;margin: 0 0 0 40px ; border: none ; padding: 0px&quot;&gt;&lt;blockquote style=&quot;margin: 0 0 0 40px ; border: none ; padding: 0px&quot;&gt;&lt;/blockquote&gt;&lt;/blockquote&gt;}" style="whiteSpace=wrap;html=1;labelBackgroundColor=none;fontSize=16;verticalAlign=top;labelPosition=center;verticalLabelPosition=middle;align=left;spacingBottom=40;strokeColor=#d79b00;fillColor=#ffe6cc;fontColor=#333333;spacingLeft=4;" parent="1" vertex="1">
                    <mxGeometry x="205" y="267" width="187" height="203" as="geometry"/>
                </mxCell>
                <mxCell id="28" value="" style="group" parent="1" vertex="1" connectable="0">
                    <mxGeometry x="418" y="133" width="405" height="577" as="geometry"/>
                </mxCell>
                <mxCell id="29" value="" style="whiteSpace=wrap;html=1;labelBackgroundColor=none;fontSize=22;fontColor=#FFFFFF;" parent="28" vertex="1">
                    <mxGeometry width="328" height="577" as="geometry"/>
                </mxCell>
                <mxCell id="30" value="&lt;br&gt;&lt;br&gt;&lt;span style=&quot;color: rgb(255 , 255 , 255) ; font-family: &amp;#34;helvetica&amp;#34; ; font-size: 22px ; font-style: normal ; font-weight: 400 ; letter-spacing: normal ; text-align: center ; text-indent: 0px ; text-transform: none ; word-spacing: 0px ; display: inline ; float: none&quot;&gt;Container 3&lt;/span&gt;&lt;br&gt;&lt;font style=&quot;font-size: 14px&quot;&gt;(To be designed for integration with Revit and GIS&lt;br&gt;partition b)&lt;/font&gt;" style="whiteSpace=wrap;html=1;labelBackgroundColor=none;fontSize=22;fontColor=#ffffff;verticalAlign=middle;labelPosition=center;verticalLabelPosition=middle;align=center;spacingBottom=40;strokeColor=#314354;fillColor=#647687;" parent="28" vertex="1">
                    <mxGeometry width="330" height="113" as="geometry"/>
                </mxCell>
                <mxCell id="46" value="&lt;b&gt;VisualData-GIS&lt;/b&gt;&lt;br&gt;{&lt;br&gt;id:...&lt;blockquote style=&quot;margin: 0 0 0 40px ; border: none ; padding: 0px&quot;&gt;&lt;/blockquote&gt;,type:&quot;GIS&quot;&lt;br&gt;&lt;blockquote style=&quot;margin: 0 0 0 40px ; border: none ; padding: 0px&quot;&gt;&lt;/blockquote&gt;,name:..&lt;br&gt;,detail:{...}&lt;br&gt;}" style="whiteSpace=wrap;html=1;labelBackgroundColor=none;fontSize=16;verticalAlign=top;labelPosition=center;verticalLabelPosition=middle;align=left;spacingBottom=40;strokeColor=#d79b00;fillColor=#ffe6cc;fontColor=#333333;spacingLeft=4;" parent="28" vertex="1">
                    <mxGeometry x="12" y="363" width="196" height="182" as="geometry"/>
                </mxCell>
                <mxCell id="45" value="&lt;b&gt;VisualData-topology&lt;/b&gt;&lt;br&gt;{&lt;br&gt;id:...&lt;blockquote style=&quot;margin: 0 0 0 40px ; border: none ; padding: 0px&quot;&gt;&lt;/blockquote&gt;,type:&quot;Topology&quot;&lt;br&gt;&lt;blockquote style=&quot;margin: 0 0 0 40px ; border: none ; padding: 0px&quot;&gt;&lt;/blockquote&gt;,name:...&lt;br&gt;,detail:{...}&lt;br&gt;}" style="whiteSpace=wrap;html=1;labelBackgroundColor=none;fontSize=16;verticalAlign=top;labelPosition=center;verticalLabelPosition=middle;align=left;spacingBottom=40;strokeColor=#d79b00;fillColor=#ffe6cc;fontColor=#333333;spacingLeft=4;" parent="28" vertex="1">
                    <mxGeometry x="14" y="147" width="196" height="182" as="geometry"/>
                </mxCell>
                <mxCell id="33" value="duplicate in cosmos or query from ADT and IOTHub? concern is they might trigger too much writing to DB" style="whiteSpace=wrap;html=1;rounded=1;arcSize=50;align=center;verticalAlign=middle;strokeWidth=1;autosize=1;spacing=4;treeFolding=1;treeMoving=1;newEdgeStyle={&quot;edgeStyle&quot;:&quot;entityRelationEdgeStyle&quot;,&quot;startArrow&quot;:&quot;none&quot;,&quot;endArrow&quot;:&quot;none&quot;,&quot;segment&quot;:10,&quot;curved&quot;:1};labelBackgroundColor=none;fillColor=#f8cecc;fontSize=16;strokeColor=#b85450;fontColor=#333333;shadow=1;" parent="1" vertex="1">
                    <mxGeometry x="-403" y="595.0024957841484" width="324" height="107.50421585160203" as="geometry"/>
                </mxCell>
                <mxCell id="24" value="" style="html=1;endArrow=oval;strokeColor=#9933FF;fontSize=16;fontColor=#9933FF;endFill=1;" parent="1" edge="1">
                    <mxGeometry width="100" relative="1" as="geometry">
                        <mxPoint x="-308" y="622" as="sourcePoint"/>
                        <mxPoint x="-357" y="451" as="targetPoint"/>
                    </mxGeometry>
                </mxCell>
                <mxCell id="25" value="" style="html=1;endArrow=oval;strokeColor=#9933FF;fontSize=16;fontColor=#9933FF;endFill=1;" parent="1" edge="1">
                    <mxGeometry width="100" relative="1" as="geometry">
                        <mxPoint x="-305" y="621" as="sourcePoint"/>
                        <mxPoint x="-229" y="451" as="targetPoint"/>
                    </mxGeometry>
                </mxCell>
                <mxCell id="32" value="&lt;b&gt;UserEvents&lt;/b&gt;&lt;br&gt;{&lt;br&gt;id:...&lt;blockquote style=&quot;margin: 0 0 0 40px ; border: none ; padding: 0px&quot;&gt;&lt;/blockquote&gt;,type:&quot;userevent&quot;&lt;br&gt;&lt;blockquote style=&quot;margin: 0 0 0 40px ; border: none ; padding: 0px&quot;&gt;&lt;/blockquote&gt;,accountID:&lt;br&gt;&lt;blockquote style=&quot;margin: 0 0 0 40px ; border: none ; padding: 0px&quot;&gt;&lt;/blockquote&gt;,eventTS:...&lt;br&gt;,detail:{...}&lt;br&gt;,eventType:...&lt;br&gt;}" style="whiteSpace=wrap;html=1;labelBackgroundColor=none;fontSize=16;verticalAlign=top;labelPosition=center;verticalLabelPosition=middle;align=left;spacingBottom=40;strokeColor=#d79b00;fillColor=#ffe6cc;fontColor=#333333;spacingLeft=4;" parent="1" vertex="1">
                    <mxGeometry x="-609" y="522" width="196" height="219" as="geometry"/>
                </mxCell>
                <mxCell id="36" value="a small thumbnail of birdview of the layout?" style="whiteSpace=wrap;html=1;rounded=1;arcSize=50;align=center;verticalAlign=middle;strokeWidth=1;autosize=1;spacing=4;treeFolding=1;treeMoving=1;newEdgeStyle={&quot;edgeStyle&quot;:&quot;entityRelationEdgeStyle&quot;,&quot;startArrow&quot;:&quot;none&quot;,&quot;endArrow&quot;:&quot;none&quot;,&quot;segment&quot;:10,&quot;curved&quot;:1};labelBackgroundColor=none;fillColor=#f8cecc;fontSize=16;strokeColor=#b85450;fontColor=#333333;shadow=1;" parent="1" vertex="1">
                    <mxGeometry x="-789" y="1003" width="215" height="67" as="geometry"/>
                </mxCell>
                <mxCell id="40" value="" style="html=1;endArrow=oval;strokeColor=#9933FF;fontSize=16;fontColor=#9933FF;endFill=1;" parent="1" edge="1">
                    <mxGeometry width="100" relative="1" as="geometry">
                        <mxPoint x="-692" y="1021" as="sourcePoint"/>
                        <mxPoint x="-567" y="908" as="targetPoint"/>
                    </mxGeometry>
                </mxCell>
                <mxCell id="42" value="" style="html=1;endArrow=oval;strokeColor=#9933FF;fontSize=16;fontColor=#9933FF;endFill=1;" parent="1" edge="1">
                    <mxGeometry width="100" relative="1" as="geometry">
                        <mxPoint x="-691" y="1022" as="sourcePoint"/>
                        <mxPoint x="-757.0000000000001" y="912" as="targetPoint"/>
                    </mxGeometry>
                </mxCell>
            </root>
        </mxGraphModel>
    </diagram>
</mxfile>